<svg xmlns="http://www.w3.org/2000/svg" viewBox="0 0 9.92 10">
	<title>
		close-button
	</title>
	<g>
		<g>
			<path class="button" d="M1.05.06l-1,1A.18.18,0,0,0,0,1.18a.18.18,0,0,0,.09.15L3.68,5,.11,8.56a.34.34,0,0,0,0,.17.41.41,0,0,0,.05.17l1,.93a.16.16,0,0,0,.15.09.18.18,0,0,0,.16-.09L5,6.29l3.6,3.65a.18.18,0,0,0,.15.06.21.21,0,0,0,.16-.06l1-1a.18.18,0,0,0,.09-.16.2.2,0,0,0-.06-.15L6.23,5,9.8,1.44a.16.16,0,0,0,.09-.15.18.18,0,0,0-.09-.16l-1-1c-.11-.11-.22-.11-.31,0L5,3.71,1.36.06A.22.22,0,0,0,1.19,0,.18.18,0,0,0,1.05.06Z" />
		</g>
	</g>
</svg>
